<mxfile host="app.diagrams.net" agent="Mozilla/5.0 (Windows NT 10.0; Win64; x64) AppleWebKit/537.36 (KHTML, like Gecko) Chrome/134.0.0.0 Safari/537.36 Edg/134.0.0.0" version="26.1.0">
  <diagram name="Page-1" id="QO4-24GMarZAQI5ssrmc">
    <mxGraphModel dx="2358" dy="665" grid="1" gridSize="10" guides="1" tooltips="1" connect="1" arrows="1" fold="1" page="1" pageScale="1" pageWidth="850" pageHeight="1100" background="none" math="0" shadow="0">
      <root>
        <mxCell id="0" />
        <mxCell id="1" parent="0" />
        <mxCell id="hERTFrLl1kRhGL-G04No-200" style="edgeStyle=orthogonalEdgeStyle;rounded=0;orthogonalLoop=1;jettySize=auto;html=1;exitX=0.5;exitY=1;exitDx=0;exitDy=0;labelBackgroundColor=none;strokeColor=#E07A5F;fontColor=default;" edge="1" parent="1" source="hERTFrLl1kRhGL-G04No-201">
          <mxGeometry relative="1" as="geometry">
            <mxPoint x="630" y="830" as="targetPoint" />
          </mxGeometry>
        </mxCell>
        <mxCell id="hERTFrLl1kRhGL-G04No-201" value="" style="ellipse;whiteSpace=wrap;html=1;labelBackgroundColor=none;fillColor=#F2CC8F;strokeColor=#E07A5F;fontColor=#393C56;" vertex="1" parent="1">
          <mxGeometry x="570" y="710" width="120" height="80" as="geometry" />
        </mxCell>
        <mxCell id="hERTFrLl1kRhGL-G04No-202" value="Inicio" style="text;html=1;align=center;verticalAlign=middle;whiteSpace=wrap;rounded=0;labelBackgroundColor=none;fontColor=#393C56;" vertex="1" parent="1">
          <mxGeometry x="600" y="735" width="60" height="30" as="geometry" />
        </mxCell>
        <mxCell id="hERTFrLl1kRhGL-G04No-203" style="edgeStyle=orthogonalEdgeStyle;rounded=0;orthogonalLoop=1;jettySize=auto;html=1;exitX=0;exitY=0.5;exitDx=0;exitDy=0;strokeColor=#E07A5F;fontColor=default;fillColor=#F2CC8F;labelBackgroundColor=none;" edge="1" parent="1" source="hERTFrLl1kRhGL-G04No-205">
          <mxGeometry relative="1" as="geometry">
            <mxPoint x="360" y="970" as="targetPoint" />
          </mxGeometry>
        </mxCell>
        <mxCell id="hERTFrLl1kRhGL-G04No-204" style="edgeStyle=orthogonalEdgeStyle;rounded=0;orthogonalLoop=1;jettySize=auto;html=1;exitX=1;exitY=0.5;exitDx=0;exitDy=0;strokeColor=#E07A5F;fontColor=default;fillColor=#F2CC8F;labelBackgroundColor=none;" edge="1" parent="1" source="hERTFrLl1kRhGL-G04No-205">
          <mxGeometry relative="1" as="geometry">
            <mxPoint x="890" y="970" as="targetPoint" />
          </mxGeometry>
        </mxCell>
        <mxCell id="hERTFrLl1kRhGL-G04No-205" value="" style="rhombus;whiteSpace=wrap;html=1;strokeColor=#E07A5F;fontColor=#393C56;fillColor=#F2CC8F;labelBackgroundColor=none;" vertex="1" parent="1">
          <mxGeometry x="555" y="830" width="150" height="130" as="geometry" />
        </mxCell>
        <mxCell id="hERTFrLl1kRhGL-G04No-206" value="Verificar disponibiliadad de la consola" style="text;html=1;align=center;verticalAlign=middle;whiteSpace=wrap;rounded=0;fontColor=#393C56;labelBackgroundColor=none;" vertex="1" parent="1">
          <mxGeometry x="600" y="880" width="60" height="30" as="geometry" />
        </mxCell>
        <mxCell id="hERTFrLl1kRhGL-G04No-207" style="edgeStyle=orthogonalEdgeStyle;rounded=0;orthogonalLoop=1;jettySize=auto;html=1;exitX=0.5;exitY=1;exitDx=0;exitDy=0;strokeColor=#E07A5F;fontColor=default;fillColor=#F2CC8F;labelBackgroundColor=none;" edge="1" parent="1" source="hERTFrLl1kRhGL-G04No-208">
          <mxGeometry relative="1" as="geometry">
            <mxPoint x="359.95238095238096" y="1090" as="targetPoint" />
          </mxGeometry>
        </mxCell>
        <mxCell id="hERTFrLl1kRhGL-G04No-208" value="Ir a comprar la consola a la tienda que la tiene disponible." style="rounded=0;whiteSpace=wrap;html=1;strokeColor=#E07A5F;fontColor=#393C56;fillColor=#F2CC8F;labelBackgroundColor=none;" vertex="1" parent="1">
          <mxGeometry x="290" y="970" width="140" height="60" as="geometry" />
        </mxCell>
        <mxCell id="hERTFrLl1kRhGL-G04No-209" value="&lt;font style=&quot;color: rgb(223, 155, 38);&quot;&gt;Si esta disponible&lt;/font&gt;" style="text;html=1;align=center;verticalAlign=middle;whiteSpace=wrap;rounded=0;fontColor=#393C56;labelBackgroundColor=none;" vertex="1" parent="1">
          <mxGeometry x="430" y="860" width="60" height="30" as="geometry" />
        </mxCell>
        <mxCell id="hERTFrLl1kRhGL-G04No-210" value="&lt;font style=&quot;color: rgb(223, 155, 38);&quot;&gt;No esta disponible&lt;/font&gt;" style="text;html=1;align=center;verticalAlign=middle;whiteSpace=wrap;rounded=0;fontColor=#393C56;labelBackgroundColor=none;" vertex="1" parent="1">
          <mxGeometry x="760" y="860" width="60" height="30" as="geometry" />
        </mxCell>
        <mxCell id="hERTFrLl1kRhGL-G04No-236" style="edgeStyle=orthogonalEdgeStyle;rounded=0;orthogonalLoop=1;jettySize=auto;html=1;exitX=0.5;exitY=1;exitDx=0;exitDy=0;strokeColor=#E07A5F;fontColor=#393C56;fillColor=#F2CC8F;" edge="1" parent="1" source="hERTFrLl1kRhGL-G04No-211" target="hERTFrLl1kRhGL-G04No-215">
          <mxGeometry relative="1" as="geometry" />
        </mxCell>
        <mxCell id="hERTFrLl1kRhGL-G04No-211" value="" style="ellipse;whiteSpace=wrap;html=1;strokeColor=#E07A5F;fontColor=#393C56;fillColor=#F2CC8F;labelBackgroundColor=none;" vertex="1" parent="1">
          <mxGeometry x="830" y="970" width="120" height="80" as="geometry" />
        </mxCell>
        <mxCell id="hERTFrLl1kRhGL-G04No-212" value="Fin." style="text;html=1;align=center;verticalAlign=middle;whiteSpace=wrap;rounded=0;fontColor=#393C56;labelBackgroundColor=none;" vertex="1" parent="1">
          <mxGeometry x="860" y="995" width="60" height="30" as="geometry" />
        </mxCell>
        <mxCell id="hERTFrLl1kRhGL-G04No-213" style="edgeStyle=orthogonalEdgeStyle;rounded=0;orthogonalLoop=1;jettySize=auto;html=1;exitX=0;exitY=0.5;exitDx=0;exitDy=0;strokeColor=#E07A5F;fontColor=default;fillColor=#F2CC8F;labelBackgroundColor=none;" edge="1" parent="1" source="hERTFrLl1kRhGL-G04No-215">
          <mxGeometry relative="1" as="geometry">
            <mxPoint x="190" y="1250" as="targetPoint" />
          </mxGeometry>
        </mxCell>
        <mxCell id="hERTFrLl1kRhGL-G04No-214" style="edgeStyle=orthogonalEdgeStyle;rounded=0;orthogonalLoop=1;jettySize=auto;html=1;exitX=1;exitY=0.5;exitDx=0;exitDy=0;strokeColor=#E07A5F;fontColor=default;fillColor=#F2CC8F;labelBackgroundColor=none;" edge="1" parent="1" source="hERTFrLl1kRhGL-G04No-215">
          <mxGeometry relative="1" as="geometry">
            <mxPoint x="510" y="1250" as="targetPoint" />
          </mxGeometry>
        </mxCell>
        <mxCell id="hERTFrLl1kRhGL-G04No-215" value="" style="rhombus;whiteSpace=wrap;html=1;strokeColor=#E07A5F;fontColor=#393C56;fillColor=#F2CC8F;labelBackgroundColor=none;" vertex="1" parent="1">
          <mxGeometry x="285" y="1090" width="150" height="130" as="geometry" />
        </mxCell>
        <mxCell id="hERTFrLl1kRhGL-G04No-216" value="Verificar cuál tienda tiene la talla adecudada." style="text;html=1;align=center;verticalAlign=middle;whiteSpace=wrap;rounded=0;fontColor=#393C56;labelBackgroundColor=none;" vertex="1" parent="1">
          <mxGeometry x="330" y="1140" width="60" height="30" as="geometry" />
        </mxCell>
        <mxCell id="hERTFrLl1kRhGL-G04No-217" style="edgeStyle=orthogonalEdgeStyle;rounded=0;orthogonalLoop=1;jettySize=auto;html=1;exitX=0.5;exitY=1;exitDx=0;exitDy=0;entryX=0.5;entryY=0;entryDx=0;entryDy=0;strokeColor=#E07A5F;fontColor=default;fillColor=#F2CC8F;labelBackgroundColor=none;" edge="1" parent="1" source="hERTFrLl1kRhGL-G04No-218" target="hERTFrLl1kRhGL-G04No-226">
          <mxGeometry relative="1" as="geometry" />
        </mxCell>
        <mxCell id="hERTFrLl1kRhGL-G04No-218" value="" style="rounded=0;whiteSpace=wrap;html=1;strokeColor=#E07A5F;fontColor=#393C56;fillColor=#F2CC8F;labelBackgroundColor=none;" vertex="1" parent="1">
          <mxGeometry x="112.5" y="1250" width="155" height="75" as="geometry" />
        </mxCell>
        <mxCell id="hERTFrLl1kRhGL-G04No-219" value="Ir a la tienda por la talla correcta." style="text;html=1;align=center;verticalAlign=middle;whiteSpace=wrap;rounded=0;fontColor=#393C56;labelBackgroundColor=none;" vertex="1" parent="1">
          <mxGeometry x="140" y="1265" width="100" height="45" as="geometry" />
        </mxCell>
        <mxCell id="hERTFrLl1kRhGL-G04No-220" value="&lt;font style=&quot;color: light-dark(rgb(223, 155, 38), rgb(237, 237, 237));&quot;&gt;Si está disponible&lt;/font&gt;" style="text;html=1;align=center;verticalAlign=middle;whiteSpace=wrap;rounded=0;fontColor=#393C56;labelBackgroundColor=none;" vertex="1" parent="1">
          <mxGeometry x="210" y="1120" width="60" height="30" as="geometry" />
        </mxCell>
        <mxCell id="hERTFrLl1kRhGL-G04No-221" value="&lt;font style=&quot;color: light-dark(rgb(223, 155, 38), rgb(237, 237, 237));&quot;&gt;No está disponible&lt;/font&gt;" style="text;html=1;align=center;verticalAlign=middle;whiteSpace=wrap;rounded=0;fontColor=#393C56;labelBackgroundColor=none;" vertex="1" parent="1">
          <mxGeometry x="440" y="1120" width="60" height="30" as="geometry" />
        </mxCell>
        <mxCell id="hERTFrLl1kRhGL-G04No-237" style="edgeStyle=orthogonalEdgeStyle;rounded=0;orthogonalLoop=1;jettySize=auto;html=1;exitX=0.5;exitY=1;exitDx=0;exitDy=0;strokeColor=#E07A5F;fontColor=#393C56;fillColor=#F2CC8F;" edge="1" parent="1" source="hERTFrLl1kRhGL-G04No-222" target="hERTFrLl1kRhGL-G04No-226">
          <mxGeometry relative="1" as="geometry" />
        </mxCell>
        <mxCell id="hERTFrLl1kRhGL-G04No-222" value="" style="ellipse;whiteSpace=wrap;html=1;strokeColor=#E07A5F;fontColor=#393C56;fillColor=#F2CC8F;labelBackgroundColor=none;" vertex="1" parent="1">
          <mxGeometry x="450" y="1250" width="120" height="80" as="geometry" />
        </mxCell>
        <mxCell id="hERTFrLl1kRhGL-G04No-223" value="Fin" style="text;html=1;align=center;verticalAlign=middle;whiteSpace=wrap;rounded=0;fontColor=#393C56;labelBackgroundColor=none;" vertex="1" parent="1">
          <mxGeometry x="480" y="1275" width="60" height="30" as="geometry" />
        </mxCell>
        <mxCell id="hERTFrLl1kRhGL-G04No-224" style="edgeStyle=orthogonalEdgeStyle;rounded=0;orthogonalLoop=1;jettySize=auto;html=1;exitX=0;exitY=0.5;exitDx=0;exitDy=0;strokeColor=#E07A5F;fontColor=default;fillColor=#F2CC8F;labelBackgroundColor=none;" edge="1" parent="1" source="hERTFrLl1kRhGL-G04No-226">
          <mxGeometry relative="1" as="geometry">
            <mxPoint x="-40" y="1570" as="targetPoint" />
          </mxGeometry>
        </mxCell>
        <mxCell id="hERTFrLl1kRhGL-G04No-225" style="edgeStyle=orthogonalEdgeStyle;rounded=0;orthogonalLoop=1;jettySize=auto;html=1;exitX=1;exitY=0.5;exitDx=0;exitDy=0;strokeColor=#E07A5F;fontColor=default;fillColor=#F2CC8F;labelBackgroundColor=none;" edge="1" parent="1" source="hERTFrLl1kRhGL-G04No-226">
          <mxGeometry relative="1" as="geometry">
            <mxPoint x="310" y="1760" as="targetPoint" />
          </mxGeometry>
        </mxCell>
        <mxCell id="hERTFrLl1kRhGL-G04No-226" value="" style="rhombus;whiteSpace=wrap;html=1;strokeColor=#E07A5F;fontColor=#393C56;fillColor=#F2CC8F;labelBackgroundColor=none;" vertex="1" parent="1">
          <mxGeometry x="93.44000000000005" y="1387.5" width="193.13" height="172.5" as="geometry" />
        </mxCell>
        <mxCell id="hERTFrLl1kRhGL-G04No-227" value="Llama o consulta en linea que tienda tiene disponible el tamaño de TV que quieres." style="text;html=1;align=center;verticalAlign=middle;whiteSpace=wrap;rounded=0;fontColor=#393C56;labelBackgroundColor=none;" vertex="1" parent="1">
          <mxGeometry x="120" y="1460" width="140" height="43.75" as="geometry" />
        </mxCell>
        <mxCell id="hERTFrLl1kRhGL-G04No-228" style="edgeStyle=orthogonalEdgeStyle;rounded=0;orthogonalLoop=1;jettySize=auto;html=1;exitX=0.5;exitY=1;exitDx=0;exitDy=0;strokeColor=#E07A5F;fontColor=default;fillColor=#F2CC8F;labelBackgroundColor=none;" edge="1" parent="1" source="hERTFrLl1kRhGL-G04No-229">
          <mxGeometry relative="1" as="geometry">
            <mxPoint x="310" y="1760" as="targetPoint" />
          </mxGeometry>
        </mxCell>
        <mxCell id="hERTFrLl1kRhGL-G04No-229" value="" style="rounded=0;whiteSpace=wrap;html=1;strokeColor=#E07A5F;fontColor=#393C56;fillColor=#F2CC8F;labelBackgroundColor=none;" vertex="1" parent="1">
          <mxGeometry x="-110" y="1570" width="140" height="60" as="geometry" />
        </mxCell>
        <mxCell id="hERTFrLl1kRhGL-G04No-230" value="Ve a la tienda a comprar el tamaño de TV que necesitas." style="text;html=1;align=center;verticalAlign=middle;whiteSpace=wrap;rounded=0;fontColor=#393C56;labelBackgroundColor=none;" vertex="1" parent="1">
          <mxGeometry x="-100" y="1585" width="120" height="30" as="geometry" />
        </mxCell>
        <mxCell id="hERTFrLl1kRhGL-G04No-231" value="" style="ellipse;whiteSpace=wrap;html=1;strokeColor=#E07A5F;fontColor=#393C56;fillColor=#F2CC8F;labelBackgroundColor=none;" vertex="1" parent="1">
          <mxGeometry x="250" y="1760" width="120" height="80" as="geometry" />
        </mxCell>
        <mxCell id="hERTFrLl1kRhGL-G04No-232" value="Fin." style="text;html=1;align=center;verticalAlign=middle;whiteSpace=wrap;rounded=0;fontColor=#393C56;labelBackgroundColor=none;" vertex="1" parent="1">
          <mxGeometry x="280" y="1785" width="60" height="30" as="geometry" />
        </mxCell>
        <mxCell id="hERTFrLl1kRhGL-G04No-233" value="&lt;font style=&quot;color: rgb(223, 155, 38);&quot;&gt;Si está disponible&lt;/font&gt;" style="text;html=1;align=center;verticalAlign=middle;whiteSpace=wrap;rounded=0;fontColor=#393C56;labelBackgroundColor=none;" vertex="1" parent="1">
          <mxGeometry y="1430" width="60" height="30" as="geometry" />
        </mxCell>
        <mxCell id="hERTFrLl1kRhGL-G04No-234" value="&lt;font style=&quot;color: rgb(223, 155, 38);&quot;&gt;No está disponible&lt;/font&gt;" style="text;html=1;align=center;verticalAlign=middle;whiteSpace=wrap;rounded=0;fontColor=#393C56;labelBackgroundColor=none;" vertex="1" parent="1">
          <mxGeometry x="320" y="1500" width="60" height="30" as="geometry" />
        </mxCell>
      </root>
    </mxGraphModel>
  </diagram>
</mxfile>
